<svg xmlns="http://www.w3.org/2000/svg"
        width="300" height="300"
        viewBox="0 0 300 300"><g transform="translate(0 0)"><svg class="shape-svg" viewBox="0 0 100" xmlns="http://www.w3.org/2000/svg"><rect x="0" y="0" width="100" height="100" fill="black"></rect></svg></g><g transform="translate(100 0)"><svg class="shape-svg" viewBox="0 0 100" xmlns="http://www.w3.org/2000/svg"><rect x="0" y="0" width="100" height="100" fill="black"></rect></svg></g><g transform="translate(200 0)"><svg class="shape-svg" viewBox="0 0 100" xmlns="http://www.w3.org/2000/svg">
    <defs>
        <clipPath id="gradcircleClip">
            <rect x="0" y="0" width="100" height="100"></rect>
        </clipPath>
    </defs>
    <circle cx="100" cy="100" r="100" fill="black" transform="rotate(90 50 50)" clip-path="url(#gradcircleClip)"></circle></svg></g><g transform="translate(0 100)"><svg class="shape-svg" viewBox="0 0 100" xmlns="http://www.w3.org/2000/svg">
    <defs>
        <clipPath id="gradcircleClip">
            <rect x="0" y="0" width="100" height="100"></rect>
        </clipPath>
    </defs>
    <circle cx="100" cy="100" r="100" fill="black" transform="rotate(180 50 50)" clip-path="url(#gradcircleClip)"></circle></svg></g><g transform="translate(100 100)"><svg class="shape-svg" viewBox="0 0 100" xmlns="http://www.w3.org/2000/svg">
    <defs>
        <clipPath id="gradcircleClip">
            <rect x="0" y="0" width="100" height="100"></rect>
        </clipPath>
    </defs>
    <circle cx="100" cy="100" r="100" fill="black" transform="rotate(360 50 50)" clip-path="url(#gradcircleClip)"></circle></svg></g><g transform="translate(200 100)"><svg class="shape-svg" viewBox="0 0 100" xmlns="http://www.w3.org/2000/svg">
    <defs>
        <clipPath id="gradcircleClip">
            <rect x="0" y="0" width="100" height="100"></rect>
        </clipPath>
    </defs>
    <circle cx="100" cy="100" r="100" fill="black" transform="rotate(90 50 50)" clip-path="url(#gradcircleClip)"></circle></svg></g><g transform="translate(0 200)"><svg class="shape-svg" viewBox="0 0 100" xmlns="http://www.w3.org/2000/svg">
    <defs>
        <clipPath id="gradcircleClip">
            <rect x="0" y="0" width="100" height="100"></rect>
        </clipPath>
    </defs>
    <circle cx="100" cy="100" r="100" fill="black" transform="rotate(270 50 50)" clip-path="url(#gradcircleClip)"></circle></svg></g><g transform="translate(100 200)"><svg class="shape-svg" viewBox="0 0 100" xmlns="http://www.w3.org/2000/svg">
    <defs>
        <clipPath id="gradcircleClip">
            <rect x="0" y="0" width="100" height="100"></rect>
        </clipPath>
    </defs>
    <circle cx="100" cy="100" r="100" fill="black" transform="rotate(90 50 50)" clip-path="url(#gradcircleClip)"></circle></svg></g><g transform="translate(200 200)"><svg class="shape-svg" viewBox="0 0 100" xmlns="http://www.w3.org/2000/svg">
    <defs>
        <clipPath id="gradcircleClip">
            <rect x="0" y="0" width="100" height="100"></rect>
        </clipPath>
    </defs>
    <circle cx="100" cy="100" r="100" fill="black" transform="rotate(270 50 50)" clip-path="url(#gradcircleClip)"></circle></svg></g></svg>