<svg width="20" height="19" viewBox="0 0 20 19" fill="none" xmlns="http://www.w3.org/2000/svg">
<g id="Buy">
<path id="Stroke 1" d="M1.521 0.97908L3.42766 1.30908L4.31041 11.826C4.381 12.6849 5.09875 13.344 5.96041 13.3412H15.9603C16.7826 13.3431 17.4802 12.7381 17.5966 11.9241L18.4665 5.91258C18.5637 5.24066 18.0971 4.61733 17.4261 4.52016C17.3674 4.51191 3.73383 4.50733 3.73383 4.50733" stroke="#00623B" stroke-width="1.5" stroke-linecap="round" stroke-linejoin="round"/>
<path id="Stroke 3" d="M11.9482 7.89524H14.4902" stroke="#00623B" stroke-width="1.5" stroke-linecap="round" stroke-linejoin="round"/>
<path id="Stroke 5" fill-rule="evenodd" clip-rule="evenodd" d="M5.55824 16.519C5.83415 16.519 6.0569 16.7426 6.0569 17.0176C6.0569 17.2935 5.83415 17.5172 5.55824 17.5172C5.28232 17.5172 5.05957 17.2935 5.05957 17.0176C5.05957 16.7426 5.28232 16.519 5.55824 16.519Z" fill="#00623B" stroke="#00623B" stroke-width="1.5" stroke-linecap="round" stroke-linejoin="round"/>
<path id="Stroke 7" fill-rule="evenodd" clip-rule="evenodd" d="M15.8986 16.519C16.1745 16.519 16.3982 16.7426 16.3982 17.0176C16.3982 17.2935 16.1745 17.5172 15.8986 17.5172C15.6227 17.5172 15.3999 17.2935 15.3999 17.0176C15.3999 16.7426 15.6227 16.519 15.8986 16.519Z" fill="#00623B" stroke="#00623B" stroke-width="1.5" stroke-linecap="round" stroke-linejoin="round"/>
</g>
</svg>
