<svg width="68" height="68" viewBox="0 0 68 68" fill="none" xmlns="http://www.w3.org/2000/svg">
<g id="Group 27">
<path id="Rectangle 17" d="M34 17C43.3888 17 51 24.6112 51 34C51 43.3888 43.3888 51 34 51C24.6112 51 17 43.3888 17 34C17 24.6112 24.6112 17 34 17Z" fill="#897979"/>
<path id="Union" fill-rule="evenodd" clip-rule="evenodd" d="M33.207 39C33.207 39.8284 33.8786 40.5 34.707 40.5C35.5354 40.5 36.207 39.8284 36.207 39V35.5H39.707C40.5355 35.5 41.207 34.8284 41.207 34C41.207 33.1716 40.5355 32.5 39.707 32.5H36.207V29C36.207 28.1716 35.5354 27.5 34.707 27.5C33.8786 27.5 33.207 28.1716 33.207 29V32.5H29.707C28.8786 32.5 28.207 33.1716 28.207 34C28.207 34.8284 28.8786 35.5 29.707 35.5H33.207V39Z" fill="white"/>
</g>
</svg>
