<svg width="25" height="48" viewBox="0 0 25 48" fill="none" xmlns="http://www.w3.org/2000/svg">
<g id="Group 1621">
<path id="Path 49" d="M1.78076 13.6541L4.88816 47C4.90994 47.2575 5.02763 47.4975 5.21794 47.6724C5.40824 47.8473 5.65729 47.9444 5.91575 47.9444H18.8944C19.1529 47.9445 19.402 47.8474 19.5923 47.6725C19.7826 47.4976 19.9003 47.2576 19.922 47L23.0294 13.6541H1.78076Z" fill="#BFBFBF"/>
<path id="Path 50" d="M23.6705 11.2653H1.14005C0.837693 11.2653 0.547715 11.3854 0.333914 11.5992C0.120113 11.813 0 12.1029 0 12.4053V13.6554H24.8081V12.4053C24.8081 12.1034 24.6883 11.8138 24.475 11.6C24.2618 11.3863 23.9724 11.2659 23.6705 11.2653Z" fill="#6D6D6D"/>
<path id="Path 51" opacity="0.21" d="M23.0286 13.6541L22.8887 15.3238H1.9226L1.78271 13.6541H23.0286Z" fill="black"/>
<path id="Ellipse 2" d="M12.4727 30.9454C14.9429 30.9454 16.9454 28.9429 16.9454 26.4727C16.9454 24.0025 14.9429 22 12.4727 22C10.0025 22 8 24.0025 8 26.4727C8 28.9429 10.0025 30.9454 12.4727 30.9454Z" fill="#897979"/>
<path id="Path 54" d="M12.4054 0C9.41763 0 6.55228 1.18687 4.43964 3.29951C2.327 5.41215 1.14014 8.2775 1.14014 11.2652H23.6706C23.6706 8.2775 22.4837 5.41215 20.3711 3.29951C18.2584 1.18687 15.3931 0 12.4054 0Z" fill="black" fill-opacity="0.35"/>
<path id="Ellipse 3" d="M12.4056 1.9392C13.5768 1.9392 14.5261 1.63061 14.5261 1.24994C14.5261 0.869264 13.5768 0.560669 12.4056 0.560669C11.2345 0.560669 10.2852 0.869264 10.2852 1.24994C10.2852 1.63061 11.2345 1.9392 12.4056 1.9392Z" fill="white" fill-opacity="0.63"/>
<path id="Path 55" d="M18.9221 8.87634H5.88855C5.25504 8.87642 4.64751 9.12815 4.19957 9.57614C3.75164 10.0241 3.5 10.6317 3.5 11.2652H21.3109C21.3109 10.6316 21.0593 10.024 20.6113 9.57603C20.1633 9.12803 19.5557 8.87634 18.9221 8.87634Z" fill="#80DEEA"/>
<path id="Path 56" d="M16.934 6.48755H7.87519C7.24162 6.48755 6.63401 6.73923 6.18601 7.18723C5.73801 7.63523 5.48633 8.24284 5.48633 8.87641H19.321C19.321 8.24316 19.0695 7.63583 18.6219 7.18788C18.1743 6.73994 17.5672 6.48804 16.934 6.48755Z" fill="#80DEEA"/>
<path id="Path 57" d="M14.9463 4.09863H9.86415C9.23066 4.09863 8.62312 4.35028 8.17518 4.79822C7.72724 5.24617 7.47559 5.8537 7.47559 6.48719H17.3355C17.3354 6.17348 17.2736 5.86285 17.1535 5.57303C17.0334 5.28322 16.8574 5.0199 16.6356 4.7981C16.4137 4.5763 16.1503 4.40037 15.8605 4.28036C15.5707 4.16034 15.26 4.09859 14.9463 4.09863Z" fill="#80DEEA"/>
</g>
</svg>
