<svg width="61" height="20" viewBox="0 0 61 20" fill="none" xmlns="http://www.w3.org/2000/svg">
<g id="Group 22">
<g id="4.5">
<path d="M39.4347 19.0432V15.0203H41.6723V13.2826H39.4347V3.16589H36.7211L29.9131 13.3779V15.0203H37.459V19.0432H39.4347ZM37.459 13.2826H31.8888L37.459 4.99881V13.2826Z" fill="#BFBFBF"/>
<path d="M45.1624 19.2813C45.8765 19.2813 46.4716 18.6862 46.4716 17.9721C46.4716 17.2579 45.8765 16.6628 45.1624 16.6628C44.4483 16.6628 43.8532 17.2579 43.8532 17.9721C43.8532 18.6862 44.4483 19.2813 45.1624 19.2813Z" fill="#BFBFBF"/>
<path d="M55.0993 19.3289C58.2891 19.3289 60.7647 17.3055 60.7647 14.092C60.7647 10.807 58.3605 9.02171 55.6944 9.02171C54.0996 9.02171 52.7665 9.68822 51.981 10.45V4.9274H59.7173V3.16589H50.0053V11.7116L51.4573 12.2115C52.5285 11.1879 53.7425 10.7356 55.1231 10.7356C57.2655 10.7356 58.7652 12.0686 58.7652 14.1634C58.7652 16.0915 57.2655 17.5674 55.0993 17.5674C53.1712 17.5674 51.7668 16.8057 50.7194 15.4488L49.5054 16.7819C50.6956 18.3529 52.4333 19.3289 55.0993 19.3289Z" fill="#BFBFBF"/>
</g>
<g id="Group">
<g id="Group_2">
<path id="Vector" d="M20.936 7.59452C20.8637 7.37213 20.6716 7.21005 20.4402 7.17647L13.9406 6.23198L11.0338 0.342376C10.9304 0.132716 10.7169 0 10.4831 0C10.2493 0 10.0357 0.132716 9.93226 0.342376L7.02536 6.23198L0.525905 7.17647C0.294583 7.21005 0.102327 7.37213 0.0300923 7.59448C-0.0421831 7.81688 0.0180941 8.06097 0.185535 8.22416L4.88847 12.8086L3.77842 19.282C3.73886 19.5124 3.83362 19.7453 4.02276 19.8827C4.12976 19.9604 4.2565 20 4.38385 20C4.48164 20 4.57975 19.9767 4.6696 19.9294L10.483 16.8731L16.2962 19.9294C16.5032 20.0382 16.754 20.0201 16.9431 19.8827C17.1322 19.7453 17.227 19.5123 17.1875 19.2819L16.0771 12.8086L20.7806 8.22411C20.948 8.06097 21.0083 7.81687 20.936 7.59452Z" fill="#FFC41F"/>
</g>
</g>
</g>
</svg>
