<svg width="25" height="40" viewBox="0 0 25 40" fill="none" xmlns="http://www.w3.org/2000/svg">
<g id="Group 1621">
<path id="Path 49" d="M1.78076 13.6539L4.88816 39.0555C4.90994 39.313 5.02764 39.553 5.21794 39.7279C5.40825 39.9028 5.65729 39.9999 5.91576 39.9999H18.8944C19.1529 39.9999 19.402 39.9029 19.5923 39.728C19.7827 39.5531 19.9003 39.3131 19.922 39.0555L23.0294 13.6539H1.78076Z" fill="#FAFAFA"/>
<path id="Path 50" d="M23.6705 11.2654H1.14005C0.837694 11.2654 0.547715 11.3855 0.333914 11.5993C0.120114 11.8131 0 12.1031 0 12.4054V13.6555H24.8081V12.4054C24.8081 12.1035 24.6883 11.8139 24.4751 11.6002C24.2618 11.3864 23.9724 11.266 23.6705 11.2654Z" fill="#FAFAFA"/>
<path id="Path 51" d="M23.0286 13.6539L22.8887 15.3236H1.92261L1.78271 13.6539H23.0286Z" fill="#E0E0E0"/>
<path id="Ellipse 2" d="M12.4053 30.4919C14.8755 30.4919 16.878 28.4894 16.878 26.0192C16.878 23.549 14.8755 21.5465 12.4053 21.5465C9.93511 21.5465 7.93262 23.549 7.93262 26.0192C7.93262 28.4894 9.93511 30.4919 12.4053 30.4919Z" fill="#897979"/>
<path id="Path 54" d="M12.4054 0C9.41765 0 6.55229 1.18687 4.43964 3.29951C2.327 5.41215 1.14014 8.27751 1.14014 11.2652H23.6706C23.6706 8.27751 22.4837 5.41215 20.3711 3.29951C18.2585 1.18687 15.3931 0 12.4054 0Z" fill="white" fill-opacity="0.35"/>
<path id="Ellipse 3" d="M12.4061 1.93908C13.5773 1.93908 14.5266 1.63049 14.5266 1.24981C14.5266 0.869143 13.5773 0.560547 12.4061 0.560547C11.235 0.560547 10.2856 0.869143 10.2856 1.24981C10.2856 1.63049 11.235 1.93908 12.4061 1.93908Z" fill="white" fill-opacity="0.63"/>
<path id="Path 55" d="M18.9216 8.87622H5.88807C5.25455 8.8763 4.64702 9.12802 4.19909 9.57602C3.75115 10.024 3.49951 10.6316 3.49951 11.2651H21.3105C21.3105 10.6315 21.0588 10.0239 20.6108 9.57591C20.1628 9.12791 19.5552 8.87622 18.9216 8.87622Z" fill="#80DEEA"/>
<path id="Path 56" d="M16.9335 6.48767H7.8747C7.24114 6.48767 6.63353 6.73935 6.18553 7.18735C5.73753 7.63535 5.48584 8.24297 5.48584 8.87653H19.3205C19.3205 8.24329 19.0691 7.63595 18.6215 7.18801C18.1739 6.74006 17.5667 6.48816 16.9335 6.48767Z" fill="#80DEEA"/>
<path id="Path 57" d="M14.9463 4.09851H9.86415C9.23066 4.09851 8.62312 4.35016 8.17518 4.7981C7.72724 5.24605 7.47559 5.85358 7.47559 6.48707H17.3355C17.3354 6.17336 17.2736 5.86273 17.1535 5.57291C17.0334 5.2831 16.8574 5.01977 16.6356 4.79798C16.4137 4.57618 16.1504 4.40025 15.8605 4.28024C15.5707 4.16022 15.26 4.09847 14.9463 4.09851Z" fill="#80DEEA"/>
</g>
</svg>
