<svg width="18" height="19" viewBox="0 0 18 19" fill="none" xmlns="http://www.w3.org/2000/svg">
<g id="Icon Plus">
<path id="Union" fill-rule="evenodd" clip-rule="evenodd" d="M0.929688 12.1144C0.929688 16.1869 2.66969 17.9269 6.74219 17.9269H11.2422C15.3147 17.9269 17.0547 16.1869 17.0547 12.1144V7.61441C17.0547 3.54191 15.3147 1.80191 11.2422 1.80191H6.74219C2.66969 1.80191 0.929688 3.54191 0.929688 7.61441V12.1144ZM2.05469 7.61441C2.05469 4.15691 3.28469 2.92691 6.74219 2.92691H11.2422C14.6997 2.92691 15.9297 4.15691 15.9297 7.61441V12.1144C15.9297 15.5719 14.6997 16.8019 11.2422 16.8019H6.74219C3.28469 16.8019 2.05469 15.5719 2.05469 12.1144V7.61441ZM8.99219 13.4269C8.68469 13.4269 8.42969 13.1719 8.42969 12.8644V10.4269H5.99219C5.68469 10.4269 5.42969 10.1719 5.42969 9.86441C5.42969 9.55691 5.68469 9.30191 5.99219 9.30191H8.42969V6.86441C8.42969 6.55691 8.68469 6.30191 8.99219 6.30191C9.29969 6.30191 9.55469 6.55691 9.55469 6.86441V9.30191H11.9922C12.2997 9.30191 12.5547 9.55691 12.5547 9.86441C12.5547 10.1719 12.2997 10.4269 11.9922 10.4269H9.55469V12.8644C9.55469 13.1719 9.29969 13.4269 8.99219 13.4269Z" fill="#979797"/>
</g>
</svg>
