<svg width="19" height="19" viewBox="0 0 19 19" fill="none" xmlns="http://www.w3.org/2000/svg">
<g id="Icon Minus">
<path id="Union" fill-rule="evenodd" clip-rule="evenodd" d="M7.24219 17.9269H11.7422C15.8147 17.9269 17.5547 16.1869 17.5547 12.1144V7.61441C17.5547 3.54191 15.8147 1.80191 11.7422 1.80191H7.24219C3.16969 1.80191 1.42969 3.54191 1.42969 7.61441V12.1144C1.42969 16.1869 3.16969 17.9269 7.24219 17.9269ZM2.55469 7.61441C2.55469 4.15691 3.78469 2.92691 7.24219 2.92691H11.7422C15.1997 2.92691 16.4297 4.15691 16.4297 7.61441V12.1144C16.4297 15.5719 15.1997 16.8019 11.7422 16.8019H7.24219C3.78469 16.8019 2.55469 15.5719 2.55469 12.1144V7.61441ZM6.49219 10.4269H12.4922C12.7997 10.4269 13.0547 10.1719 13.0547 9.86441C13.0547 9.55691 12.7997 9.30191 12.4922 9.30191H6.49219C6.18469 9.30191 5.92969 9.55691 5.92969 9.86441C5.92969 10.1719 6.18469 10.4269 6.49219 10.4269Z" fill="#979797"/>
</g>
</svg>
