<svg width="22" height="22" viewBox="0 0 22 22" fill="none" xmlns="http://www.w3.org/2000/svg">
<g id="Buy">
<path id="Stroke 1" d="M0.979492 1.52075L3.23283 1.91075L4.27608 14.3398C4.35949 15.3549 5.20774 16.1338 6.22608 16.1306H18.0442C19.0159 16.1328 19.8403 15.4178 19.9779 14.4558L21.006 7.35125C21.1208 6.55717 20.5694 5.8205 19.7764 5.70567C19.7071 5.69592 3.59466 5.6905 3.59466 5.6905" stroke="#00623B" stroke-width="1.5" stroke-linecap="round" stroke-linejoin="round"/>
<path id="Stroke 3" d="M13.3027 9.69438H16.3068" stroke="#00623B" stroke-width="1.5" stroke-linecap="round" stroke-linejoin="round"/>
<path id="Stroke 5" fill-rule="evenodd" clip-rule="evenodd" d="M5.75047 19.886C6.07655 19.886 6.3398 20.1504 6.3398 20.4754C6.3398 20.8015 6.07655 21.0658 5.75047 21.0658C5.42438 21.0658 5.16113 20.8015 5.16113 20.4754C5.16113 20.1504 5.42438 19.886 5.75047 19.886Z" fill="#00623B" stroke="#00623B" stroke-width="1.5" stroke-linecap="round" stroke-linejoin="round"/>
<path id="Stroke 7" fill-rule="evenodd" clip-rule="evenodd" d="M17.9712 19.886C18.2973 19.886 18.5616 20.1504 18.5616 20.4754C18.5616 20.8015 18.2973 21.0658 17.9712 21.0658C17.6451 21.0658 17.3818 20.8015 17.3818 20.4754C17.3818 20.1504 17.6451 19.886 17.9712 19.886Z" fill="#00623B" stroke="#00623B" stroke-width="1.5" stroke-linecap="round" stroke-linejoin="round"/>
</g>
</svg>
