<svg width="32" height="32" viewBox="0 0 32 32" fill="none" xmlns="http://www.w3.org/2000/svg">
<g id="tabler-icon-smart-home">
<path id="Vector" d="M21.3335 20C18.3868 21.7774 13.6108 21.7774 10.6668 20M25.3335 11.6134L18.2229 6.0827C17.5989 5.59725 16.8308 5.33368 16.0402 5.33368C15.2496 5.33368 14.4815 5.59725 13.8575 6.0827L6.74554 11.6134C6.31813 11.9458 5.97233 12.3714 5.73454 12.8578C5.49676 13.3443 5.37328 13.8786 5.37354 14.42V24.02C5.37354 24.7273 5.65449 25.4056 6.15458 25.9057C6.65468 26.4058 7.33296 26.6867 8.0402 26.6867H24.0402C24.7474 26.6867 25.4257 26.4058 25.9258 25.9057C26.4259 25.4056 26.7069 24.7273 26.7069 24.02V14.42C26.7069 13.3227 26.2002 12.2867 25.3335 11.6134Z" stroke="white" stroke-width="2" stroke-linecap="round" stroke-linejoin="round"/>
</g>
</svg>
