<svg width="32" height="32" viewBox="0 0 32 32" fill="none" xmlns="http://www.w3.org/2000/svg">
<g id="tabler-icon-heart">
<path id="Vector" d="M26.0002 16.7627L16.0002 26.6667L6.00024 16.7627C5.34065 16.1208 4.8211 15.3493 4.4743 14.4968C4.12751 13.6443 3.96099 12.7293 3.98522 11.8092C4.00946 10.8892 4.22392 9.98417 4.61512 9.15111C5.00631 8.31804 5.56575 7.575 6.25822 6.96876C6.95069 6.36253 7.76118 5.90624 8.63865 5.62863C9.51613 5.35102 10.4416 5.2581 11.3567 5.35573C12.2719 5.45335 13.1569 5.7394 13.9561 6.19587C14.7552 6.65233 15.4512 7.26933 16.0002 8.00799C16.5516 7.27469 17.2484 6.66309 18.047 6.21146C18.8457 5.75984 19.7289 5.47792 20.6415 5.38335C21.5541 5.28878 22.4763 5.38359 23.3506 5.66185C24.2249 5.94011 25.0323 6.39582 25.7223 7.00048C26.4123 7.60513 26.9701 8.3457 27.3608 9.17585C27.7515 10.006 27.9666 10.9078 27.9927 11.8249C28.0187 12.742 27.8553 13.6546 27.5124 14.5057C27.1696 15.3567 26.6548 16.1278 26.0002 16.7707" stroke="#464646" stroke-width="2" stroke-linecap="round" stroke-linejoin="round"/>
</g>
</svg>
