<svg width="32" height="32" viewBox="0 0 32 32" fill="none" xmlns="http://www.w3.org/2000/svg">
<g id="tabler-icon-bell">
<path id="Vector" d="M11.9997 22.6667V24C11.9997 25.0609 12.4211 26.0783 13.1712 26.8284C13.9214 27.5786 14.9388 28 15.9997 28C17.0605 28 18.078 27.5786 18.8281 26.8284C19.5782 26.0783 19.9997 25.0609 19.9997 24V22.6667M13.333 6.66667C13.333 5.95942 13.614 5.28115 14.1141 4.78105C14.6142 4.28095 15.2924 4 15.9997 4C16.7069 4 17.3852 4.28095 17.8853 4.78105C18.3854 5.28115 18.6663 5.95942 18.6663 6.66667C20.1976 7.3907 21.5029 8.51777 22.4424 9.92707C23.3819 11.3364 23.9203 12.9748 23.9997 14.6667V18.6667C24.1 19.4956 24.3936 20.2894 24.8568 20.9842C25.3199 21.6789 25.9398 22.2552 26.6663 22.6667H5.33301C6.05959 22.2552 6.67942 21.6789 7.14259 20.9842C7.60576 20.2894 7.89933 19.4956 7.99967 18.6667V14.6667C8.07909 12.9748 8.61741 11.3364 9.55694 9.92707C10.4965 8.51777 11.8018 7.3907 13.333 6.66667Z" stroke="#464646" stroke-width="2" stroke-linecap="round" stroke-linejoin="round"/>
</g>
</svg>
