<svg width="17" height="18" viewBox="0 0 17 18" fill="none" xmlns="http://www.w3.org/2000/svg">
<g id="&#240;&#159;&#166;&#134; icon &#34;trash&#34;">
<g id="Group">
<path id="Vector" d="M15.6354 4.54827C12.9714 4.28427 10.2914 4.14827 7.61935 4.14827C6.03535 4.14827 4.45135 4.22827 2.86735 4.38827L1.23535 4.54827" stroke="#979797" stroke-width="1.2" stroke-linecap="round" stroke-linejoin="round"/>
<path id="Vector_2" d="M5.63525 3.74041L5.81125 2.69241C5.93925 1.93241 6.03525 1.36441 7.38725 1.36441H9.48325C10.8353 1.36441 10.9393 1.96441 11.0593 2.70041L11.2353 3.74041" stroke="#979797" stroke-width="1.2" stroke-linecap="round" stroke-linejoin="round"/>
<path id="Vector_3" d="M13.9155 7.07646L13.3955 15.1325C13.3075 16.3885 13.2356 17.3645 11.0036 17.3645H5.86757C3.63557 17.3645 3.56357 16.3885 3.47557 15.1325L2.95557 7.07646" stroke="#979797" stroke-width="1.2" stroke-linecap="round" stroke-linejoin="round"/>
<path id="Vector_4" d="M7.09961 12.9644H9.76361" stroke="#979797" stroke-width="1.2" stroke-linecap="round" stroke-linejoin="round"/>
<path id="Vector_5" d="M6.43555 9.76445H10.4355" stroke="#979797" stroke-width="1.2" stroke-linecap="round" stroke-linejoin="round"/>
</g>
</g>
</svg>
